{"asset":{"copyright":"","generator":"Source 2 Viewer 15.0.0.0 - https://valveresourceformat.github.io","version":"2.0"},"accessors":[{"bufferView":0,"componentType":5126,"count":126,"max":[1.961532711982727,0.7383628487586975,7.446504592895508],"min":[-0.9746377468109131,-0.8609283566474915,-5.291492462158203],"type":"VEC3"},{"bufferView":1,"componentType":5126,"count":126,"max":[0.664879560470581,0.9996079802513123,0.5773648619651794],"min":[-0.7069231867790222,-0.986540675163269,-0.6092254519462585],"type":"VEC3"},{"bufferView":2,"componentType":5126,"count":126,"max":[0.14893008768558502,0.14893008768558502],"min":[-0.06834681332111359,-0.10582984983921051],"type":"VEC2"},{"bufferView":3,"componentType":5125,"count":126,"type":"SCALAR"}],"bufferViews":[{"buffer":0,"byteLength":1512,"target":34962},{"buffer":0,"byteLength":1512,"byteOffset":1512,"target":34962},{"buffer":0,"byteLength":1008,"byteOffset":3024,"target":34962},{"buffer":0,"byteLength":504,"byteOffset":4032,"target":34963}],"buffers":[{"byteLength":4536,"uri":"weapon_knife_navaja_physics.bin"}],"images":[{"name":"physics_weaponknife","uri":"physics_weaponknife.png"}],"materials":[{"name":"physics_group_weaponknife_material","pbrMetallicRoughness":{"baseColorFactor":[0.5,0.5,1,1],"baseColorTexture":{"index":0},"metallicFactor":0}}],"meshes":[{"name":"physics_group_weaponknife","primitives":[{"attributes":{"POSITION":0,"NORMAL":1,"TEXCOORD_0":2},"indices":3,"material":0}]}],"nodes":[{"extras":{"SurfaceProperty":"weaponknife","InteractAs":[]},"name":"physics_group_weaponknife","matrix":[3.027916E-09,0,0.025399996,0,0.025399996,3.027916E-09,0,0,0,0.025399996,3.027916E-09,0,0,0,0,1],"mesh":0}],"samplers":[{"magFilter":9729,"minFilter":9987}],"scenes":[{"name":"weapon_knife_navaja.vmdl_c","nodes":[0]}],"textures":[{"name":"physics_weaponknife","sampler":0,"source":0}]}