{"asset":{"copyright":"","generator":"Source 2 Viewer 15.0.0.0 - https://valveresourceformat.github.io","version":"2.0"},"accessors":[{"bufferView":0,"componentType":5126,"count":120,"max":[2.2694263458251953,0.757086992263794,12.738811492919922],"min":[-1.924564242362976,-0.8745648264884949,-6.316402435302734],"type":"VEC3"},{"bufferView":1,"componentType":5126,"count":120,"max":[0.7035478949546814,0.9999532103538513,0.5773506164550781],"min":[-0.7038485407829285,-0.9997246265411377,-0.6092302203178406],"type":"VEC3"},{"bufferView":2,"componentType":5126,"count":120,"max":[0.2547762095928192,0.24477624893188477],"min":[-0.03849128261208534,-0.12632805109024048],"type":"VEC2"},{"bufferView":3,"componentType":5125,"count":120,"type":"SCALAR"}],"bufferViews":[{"buffer":0,"byteLength":1440,"target":34962},{"buffer":0,"byteLength":1440,"byteOffset":1440,"target":34962},{"buffer":0,"byteLength":960,"byteOffset":2880,"target":34962},{"buffer":0,"byteLength":480,"byteOffset":3840,"target":34963}],"buffers":[{"byteLength":4320,"uri":"weapon_knife_bowie_physics.bin"}],"images":[{"name":"physics_weaponknife","uri":"physics_weaponknife.png"}],"materials":[{"name":"physics_group_weaponknife_material","pbrMetallicRoughness":{"baseColorFactor":[0.5,0.5,1,1],"baseColorTexture":{"index":0},"metallicFactor":0}}],"meshes":[{"name":"physics_group_weaponknife","primitives":[{"attributes":{"POSITION":0,"NORMAL":1,"TEXCOORD_0":2},"indices":3,"material":0}]}],"nodes":[{"extras":{"SurfaceProperty":"weaponknife","InteractAs":[]},"name":"physics_group_weaponknife","matrix":[3.027916E-09,0,0.025399996,0,0.025399996,3.027916E-09,0,0,0,0.025399996,3.027916E-09,0,0,0,0,1],"mesh":0}],"samplers":[{"magFilter":9729,"minFilter":9987}],"scenes":[{"name":"weapon_knife_bowie.vmdl_c","nodes":[0]}],"textures":[{"name":"physics_weaponknife","sampler":0,"source":0}]}