{"asset":{"copyright":"","generator":"Source 2 Viewer 15.0.0.0 - https://valveresourceformat.github.io","version":"2.0"},"accessors":[{"bufferView":0,"componentType":5126,"count":156,"max":[6.399291515350342,0.755680501461029,5.609565258026123],"min":[-1.8873788118362427,-0.8076866269111633,-4.754460334777832],"type":"VEC3"},{"bufferView":1,"componentType":5126,"count":156,"max":[0.613457202911377,0.9998732805252075,0.7010419964790344],"min":[-0.7004603147506714,-0.9980482459068298,-0.609463632106781],"type":"VEC3"},{"bufferView":2,"componentType":5126,"count":156,"max":[0.12798582017421722,0.11219130456447601],"min":[-0.051195982843637466,-0.08079595118761063],"type":"VEC2"},{"bufferView":3,"componentType":5125,"count":156,"type":"SCALAR"}],"bufferViews":[{"buffer":0,"byteLength":1872,"target":34962},{"buffer":0,"byteLength":1872,"byteOffset":1872,"target":34962},{"buffer":0,"byteLength":1248,"byteOffset":3744,"target":34962},{"buffer":0,"byteLength":624,"byteOffset":4992,"target":34963}],"buffers":[{"byteLength":5616,"uri":"weapon_knife_karambit_physics.bin"}],"images":[{"name":"physics_weaponknife","uri":"physics_weaponknife.png"}],"materials":[{"name":"physics_group_weaponknife_material","pbrMetallicRoughness":{"baseColorFactor":[0.5,0.5,1,1],"baseColorTexture":{"index":0},"metallicFactor":0}}],"meshes":[{"name":"physics_group_weaponknife","primitives":[{"attributes":{"POSITION":0,"NORMAL":1,"TEXCOORD_0":2},"indices":3,"material":0}]}],"nodes":[{"extras":{"SurfaceProperty":"weaponknife","InteractAs":[]},"name":"physics_group_weaponknife","matrix":[3.027916E-09,0,0.025399996,0,0.025399996,3.027916E-09,0,0,0,0.025399996,3.027916E-09,0,0,0,0,1],"mesh":0}],"samplers":[{"magFilter":9729,"minFilter":9987}],"scenes":[{"name":"weapon_knife_karambit.vmdl_c","nodes":[0]}],"textures":[{"name":"physics_weaponknife","sampler":0,"source":0}]}