{"asset":{"copyright":"","generator":"Source 2 Viewer 15.0.0.0 - https://valveresourceformat.github.io","version":"2.0"},"accessors":[{"bufferView":0,"componentType":5126,"count":132,"max":[1.8692175149917603,0.7631740570068359,5.575730800628662],"min":[-3.7840418815612793,-0.887273907661438,-2.0008621215820312],"type":"VEC3"},{"bufferView":1,"componentType":5126,"count":132,"max":[0.6639363765716553,0.999550998210907,0.7070959806442261],"min":[-0.699928879737854,-0.9981651902198792,-0.7058207988739014],"type":"VEC3"},{"bufferView":2,"componentType":5126,"count":132,"max":[0.10946246236562729,0.111514613032341],"min":[-0.07568083703517914,-0.04001723974943161],"type":"VEC2"},{"bufferView":3,"componentType":5125,"count":132,"type":"SCALAR"}],"bufferViews":[{"buffer":0,"byteLength":1584,"target":34962},{"buffer":0,"byteLength":1584,"byteOffset":1584,"target":34962},{"buffer":0,"byteLength":1056,"byteOffset":3168,"target":34962},{"buffer":0,"byteLength":528,"byteOffset":4224,"target":34963}],"buffers":[{"byteLength":4752,"uri":"weapon_knife_push_physics.bin"}],"images":[{"name":"physics_weaponknife","uri":"physics_weaponknife.png"}],"materials":[{"name":"physics_group_weaponknife_material","pbrMetallicRoughness":{"baseColorFactor":[0.5,0.5,1,1],"baseColorTexture":{"index":0},"metallicFactor":0}}],"meshes":[{"name":"physics_group_weaponknife","primitives":[{"attributes":{"POSITION":0,"NORMAL":1,"TEXCOORD_0":2},"indices":3,"material":0}]}],"nodes":[{"extras":{"SurfaceProperty":"weaponknife","InteractAs":[]},"name":"physics_group_weaponknife","matrix":[3.027916E-09,0,0.025399996,0,0.025399996,3.027916E-09,0,0,0,0.025399996,3.027916E-09,0,0,0,0,1],"mesh":0}],"samplers":[{"magFilter":9729,"minFilter":9987}],"scenes":[{"name":"weapon_knife_push.vmdl_c","nodes":[0]}],"textures":[{"name":"physics_weaponknife","sampler":0,"source":0}]}