{"asset":{"copyright":"","generator":"Source 2 Viewer 15.0.0.0 - https://valveresourceformat.github.io","version":"2.0"},"accessors":[{"bufferView":0,"componentType":5126,"count":132,"max":[1.89537513256073,0.7693486213684082,8.781637191772461],"min":[-1.1429224014282227,-0.8891769647598267,-4.967546463012695],"type":"VEC3"},{"bufferView":1,"componentType":5126,"count":132,"max":[0.6868566870689392,0.9993520379066467,0.5773522257804871],"min":[-0.7054488062858582,-0.9988992214202881,-0.6092099547386169],"type":"VEC3"},{"bufferView":2,"componentType":5126,"count":132,"max":[0.17563274502754211,0.17563274502754211],"min":[-0.022858448326587677,-0.0993509292602539],"type":"VEC2"},{"bufferView":3,"componentType":5125,"count":132,"type":"SCALAR"}],"bufferViews":[{"buffer":0,"byteLength":1584,"target":34962},{"buffer":0,"byteLength":1584,"byteOffset":1584,"target":34962},{"buffer":0,"byteLength":1056,"byteOffset":3168,"target":34962},{"buffer":0,"byteLength":528,"byteOffset":4224,"target":34963}],"buffers":[{"byteLength":4752,"uri":"weapon_knife_butterfly_physics.bin"}],"images":[{"name":"physics_weaponknife","uri":"physics_weaponknife.png"}],"materials":[{"name":"physics_group_weaponknife_material","pbrMetallicRoughness":{"baseColorFactor":[0.5,0.5,1,1],"baseColorTexture":{"index":0},"metallicFactor":0}}],"meshes":[{"name":"physics_group_weaponknife","primitives":[{"attributes":{"POSITION":0,"NORMAL":1,"TEXCOORD_0":2},"indices":3,"material":0}]}],"nodes":[{"extras":{"SurfaceProperty":"weaponknife","InteractAs":[]},"name":"physics_group_weaponknife","matrix":[3.027916E-09,0,0.025399996,0,0.025399996,3.027916E-09,0,0,0,0.025399996,3.027916E-09,0,0,0,0,1],"mesh":0}],"samplers":[{"magFilter":9729,"minFilter":9987}],"scenes":[{"name":"weapon_knife_butterfly.vmdl_c","nodes":[0]}],"textures":[{"name":"physics_weaponknife","sampler":0,"source":0}]}