{"asset":{"copyright":"","generator":"Source 2 Viewer 15.0.0.0 - https://valveresourceformat.github.io","version":"2.0"},"accessors":[{"bufferView":0,"componentType":5126,"count":144,"max":[1.164177417755127,0.7500765323638916,10.809292793273926],"min":[-0.9481146335601807,-0.7765818238258362,-4.004485130310059],"type":"VEC3"},{"bufferView":1,"componentType":5126,"count":144,"max":[0.6911551356315613,0.9979879260063171,0.5773515105247498],"min":[-0.695436418056488,-0.9979879856109619,-0.6092248558998108],"type":"VEC3"},{"bufferView":2,"componentType":5126,"count":144,"max":[0.21618585288524628,0.21618585288524628],"min":[-0.01896229200065136,-0.08008970320224762],"type":"VEC2"},{"bufferView":3,"componentType":5125,"count":144,"type":"SCALAR"}],"bufferViews":[{"buffer":0,"byteLength":1728,"target":34962},{"buffer":0,"byteLength":1728,"byteOffset":1728,"target":34962},{"buffer":0,"byteLength":1152,"byteOffset":3456,"target":34962},{"buffer":0,"byteLength":576,"byteOffset":4608,"target":34963}],"buffers":[{"byteLength":5184,"uri":"weapon_knife_cord_physics.bin"}],"images":[{"name":"physics_weaponknife","uri":"physics_weaponknife.png"}],"materials":[{"name":"physics_group_weaponknife_material","pbrMetallicRoughness":{"baseColorFactor":[0.5,0.5,1,1],"baseColorTexture":{"index":0},"metallicFactor":0}}],"meshes":[{"name":"physics_group_weaponknife","primitives":[{"attributes":{"POSITION":0,"NORMAL":1,"TEXCOORD_0":2},"indices":3,"material":0}]}],"nodes":[{"extras":{"SurfaceProperty":"weaponknife","InteractAs":[]},"name":"physics_group_weaponknife","matrix":[3.027916E-09,0,0.025399996,0,0.025399996,3.027916E-09,0,0,0,0.025399996,3.027916E-09,0,0,0,0,1],"mesh":0}],"samplers":[{"magFilter":9729,"minFilter":9987}],"scenes":[{"name":"weapon_knife_cord.vmdl_c","nodes":[0]}],"textures":[{"name":"physics_weaponknife","sampler":0,"source":0}]}