{"asset":{"copyright":"","generator":"Source 2 Viewer 15.0.0.0 - https://valveresourceformat.github.io","version":"2.0"},"accessors":[{"bufferView":0,"componentType":5126,"count":108,"max":[2.4003517627716064,0.7454150915145874,9.284137725830078],"min":[-1.2251427173614502,-0.8683298826217651,-5.385209083557129],"type":"VEC3"},{"bufferView":1,"componentType":5126,"count":108,"max":[0.7067244648933411,0.9997147917747498,0.5773519277572632],"min":[-0.6891835927963257,-0.9966748356819153,-0.6508572697639465],"type":"VEC3"},{"bufferView":2,"componentType":5126,"count":108,"max":[0.1856827437877655,0.1856827437877655],"min":[-0.0921444520354271,-0.10770417749881744],"type":"VEC2"},{"bufferView":3,"componentType":5125,"count":108,"type":"SCALAR"}],"bufferViews":[{"buffer":0,"byteLength":1296,"target":34962},{"buffer":0,"byteLength":1296,"byteOffset":1296,"target":34962},{"buffer":0,"byteLength":864,"byteOffset":2592,"target":34962},{"buffer":0,"byteLength":432,"byteOffset":3456,"target":34963}],"buffers":[{"byteLength":3888,"uri":"weapon_knife_falchion_physics.bin"}],"images":[{"name":"physics_weaponknife","uri":"physics_weaponknife.png"}],"materials":[{"name":"physics_group_weaponknife_material","pbrMetallicRoughness":{"baseColorFactor":[0.5,0.5,1,1],"baseColorTexture":{"index":0},"metallicFactor":0}}],"meshes":[{"name":"physics_group_weaponknife","primitives":[{"attributes":{"POSITION":0,"NORMAL":1,"TEXCOORD_0":2},"indices":3,"material":0}]}],"nodes":[{"extras":{"SurfaceProperty":"weaponknife","InteractAs":[]},"name":"physics_group_weaponknife","matrix":[3.027916E-09,0,0.025399996,0,0.025399996,3.027916E-09,0,0,0,0.025399996,3.027916E-09,0,0,0,0,1],"mesh":0}],"samplers":[{"magFilter":9729,"minFilter":9987}],"scenes":[{"name":"weapon_knife_falchion.vmdl_c","nodes":[0]}],"textures":[{"name":"physics_weaponknife","sampler":0,"source":0}]}